<?xml version="1.0" standalone="no"?>
<!DOCTYPE svg PUBLIC "-//W3C//DTD SVG 20010904//EN"
 "http://www.w3.org/TR/2001/REC-SVG-20010904/DTD/svg10.dtd">
<svg version="1.0" xmlns="http://www.w3.org/2000/svg"
 width="1680.000000pt" height="1678.000000pt" viewBox="0 0 1680.000000 1678.000000"
 preserveAspectRatio="xMidYMid meet">

<g transform="translate(0.000000,1678.000000) scale(0.100000,-0.100000)"
fill="#000000" stroke="none">
<path d="M0 8390 l0 -8390 8400 0 8400 0 0 8390 0 8390 -8400 0 -8400 0 0
-8390z m8193 6293 c-45 -2 -122 -2 -170 0 -48 1 -11 3 82 3 94 0 133 -2 88 -3z
m390 0 c-51 -2 -136 -2 -190 0 -54 1 -12 3 92 3 105 0 149 -2 98 -3z m-700
-10 c-7 -2 -19 -2 -25 0 -7 3 -2 5 12 5 14 0 19 -2 13 -5z m-150 -10 c-7 -2
-21 -2 -30 0 -10 3 -4 5 12 5 17 0 24 -2 18 -5z m1160 0 c-7 -2 -21 -2 -30 0
-10 3 -4 5 12 5 17 0 24 -2 18 -5z m-1530 -40 c-7 -2 -19 -2 -25 0 -7 3 -2 5
12 5 14 0 19 -2 13 -5z m1930 0 c-7 -2 -21 -2 -30 0 -10 3 -4 5 12 5 17 0 24
-2 18 -5z m64 -9 c-3 -3 -12 -4 -19 -1 -8 3 -5 6 6 6 11 1 17 -2 13 -5z
m-2109 -11 c-10 -2 -26 -2 -35 0 -10 3 -2 5 17 5 19 0 27 -2 18 -5z m2227 -8
c67 -17 26 -17 -50 0 -36 8 -48 13 -30 13 17 0 53 -6 80 -13z m-2325 -7 c-25
-6 -115 -26 -200 -45 -197 -44 -222 -48 -135 -22 87 27 321 77 355 77 14 0 5
-5 -20 -10z m2445 -18 c27 -7 27 -8 5 -8 -14 0 -36 4 -50 8 -20 6 -21 8 -5 8
11 0 34 -4 50 -8z m95 -20 c20 -6 21 -8 5 -8 -11 0 -31 4 -45 8 -20 6 -21 8
-5 8 11 0 31 -4 45 -8z m90 -20 c20 -6 21 -8 5 -8 -11 0 -31 4 -45 8 -20 6
-21 8 -5 8 11 0 31 -4 45 -8z m125 -30 c39 -11 54 -18 34 -15 -39 6 -130 33
-114 34 6 0 42 -8 80 -19z m-3198 -16 c-3 -3 -12 -4 -19 -1 -8 3 -5 6 6 6 11
1 17 -2 13 -5z m-62 -14 c-11 -5 -29 -8 -40 -8 -16 0 -15 2 5 8 34 11 60 11
35 0z m3466 -27 c65 -20 117 -38 115 -40 -4 -5 -150 37 -211 60 -71 27 -27 18
96 -20z m-3564 1 c-3 -3 -12 -4 -19 -1 -8 3 -5 6 6 6 11 1 17 -2 13 -5z m-52
-14 c-11 -5 -27 -9 -35 -9 -9 0 -8 4 5 9 11 5 27 9 35 9 9 0 8 -4 -5 -9z
m-134 -41 c-47 -16 -86 -27 -88 -25 -5 5 137 54 157 54 8 0 -23 -13 -69 -29z
m3914 1 c13 -6 15 -9 5 -9 -8 0 -22 4 -30 9 -18 12 -2 12 25 0z m118 -40 c38
-12 66 -24 64 -27 -6 -5 -157 47 -157 54 0 3 6 3 13 1 6 -3 43 -15 80 -28z
m-4143 0 c-8 -5 -22 -9 -30 -9 -10 0 -8 3 5 9 27 12 43 12 25 0z m-80 -30
c-19 -11 -42 -19 -50 -19 -8 0 3 9 25 19 53 24 70 24 25 0z m4405 -36 c53 -20
94 -39 92 -41 -4 -3 -187 64 -196 72 -10 10 14 3 104 -31z m-4485 6 c-8 -5
-22 -9 -30 -9 -10 0 -8 3 5 9 27 12 43 12 25 0z m-60 -20 c-8 -5 -19 -10 -25
-10 -5 0 -3 5 5 10 8 5 20 10 25 10 6 0 3 -5 -5 -10z m-55 -20 c-64 -29 -258
-110 -264 -110 -14 1 40 27 149 72 63 26 120 47 125 47 6 0 1 -4 -10 -9z
m4740 -20 c13 -6 15 -9 5 -9 -8 0 -22 4 -30 9 -18 12 -2 12 25 0z m105 -40 c8
-5 11 -10 5 -10 -5 0 -17 5 -25 10 -8 5 -10 10 -5 10 6 0 17 -5 25 -10z m50
-20 c8 -5 11 -10 5 -10 -5 0 -17 5 -25 10 -8 5 -10 10 -5 10 6 0 17 -5 25 -10z
m185 -84 c174 -79 394 -191 410 -207 11 -11 -62 23 -183 84 -40 21 -77 35 -82
32 -6 -4 -10 -1 -10 4 0 6 -9 11 -19 11 -11 0 -23 5 -26 11 -4 6 -13 8 -21 5
-8 -3 -14 -2 -14 3 0 5 -22 18 -50 30 -27 12 -50 26 -50 32 0 6 -4 8 -9 5 -5
-4 -11 -2 -13 3 -1 4 -25 20 -53 34 -91 47 -41 28 120 -47z m-5355 50 c0 -5
-109 -56 -119 -56 -8 1 101 59 112 60 4 0 7 -2 7 -4z m-135 -66 c-3 -5 -12
-10 -18 -10 -7 0 -6 4 3 10 19 12 23 12 15 0z m-35 -14 c0 -3 -12 -11 -27 -18
-16 -8 -76 -40 -135 -72 -60 -32 -108 -55 -108 -52 0 4 81 49 225 125 42 22
45 23 45 17z m2453 -83 c-13 -2 -33 -2 -45 0 -13 2 -3 4 22 4 25 0 35 -2 23
-4z m-160 -10 c-7 -2 -19 -2 -25 0 -7 3 -2 5 12 5 14 0 19 -2 13 -5z m-105
-10 c-10 -2 -26 -2 -35 0 -10 3 -2 5 17 5 19 0 27 -2 18 -5z m-111 -9 c-3 -3
-12 -4 -19 -1 -8 3 -5 6 6 6 11 1 17 -2 13 -5z m-64 -11 c-7 -2 -21 -2 -30 0
-10 3 -4 5 12 5 17 0 24 -2 18 -5z m1570 0 c-7 -2 -19 -2 -25 0 -7 3 -2 5 12
5 14 0 19 -2 13 -5z m-1656 -9 c-3 -3 -12 -4 -19 -1 -8 3 -5 6 6 6 11 1 17 -2
13 -5z m-54 -11 c-7 -2 -19 -2 -25 0 -7 3 -2 5 12 5 14 0 19 -2 13 -5z m-2173
-18 c0 -2 -13 -11 -30 -20 -38 -19 -40 -11 -2 9 31 17 32 18 32 11z m2067 -1
c-3 -3 -12 -4 -19 -1 -8 3 -5 6 6 6 11 1 17 -2 13 -5z m4263 -69 c0 -8 -54 18
-70 33 -8 8 4 5 28 -7 23 -12 42 -23 42 -26z m-6405 26 c-6 -4 -41 -25 -80
-46 -38 -20 -78 -44 -88 -53 -9 -8 -20 -13 -23 -10 -5 6 84 61 161 102 34 17
43 20 30 7z m6455 -57 c0 -2 -9 0 -20 6 -11 6 -20 13 -20 16 0 2 9 0 20 -6 11
-6 20 -13 20 -16z m153 -86 c26 -17 47 -34 47 -40 0 -5 4 -7 9 -4 5 3 20 -5
34 -18 14 -13 27 -22 29 -21 2 2 14 -5 28 -16 l25 -20 -25 12 c-14 7 -30 14
-36 15 -16 3 -91 51 -99 64 -3 6 -11 8 -16 5 -5 -4 -9 0 -9 7 0 8 -29 31 -65
52 -36 21 -65 40 -65 43 0 5 67 -32 143 -79z m-6818 22 c-3 -5 -12 -10 -18
-10 -7 0 -6 4 3 10 19 12 23 12 15 0z m-55 -34 c-19 -18 -139 -92 -125 -78 10
11 126 90 135 91 2 1 -2 -5 -10 -13z m-160 -100 c0 -2 -8 -10 -17 -17 -16 -13
-17 -12 -4 4 13 16 21 21 21 13z m1530 -6 c-8 -5 -19 -10 -25 -10 -5 0 -3 5 5
10 8 5 20 10 25 10 6 0 3 -5 -5 -10z m5730 -36 c0 -2 -9 0 -20 6 -11 6 -20 13
-20 16 0 2 9 0 20 -6 11 -6 20 -13 20 -16z m-7330 -8 c0 -3 -15 -14 -32 -26
l-33 -22 30 26 c31 27 35 29 35 22z m-90 -66 c-52 -41 -110 -81 -110 -77 0 6
122 97 129 97 3 0 -5 -9 -19 -20z m7580 -47 c0 -7 -58 36 -66 49 -4 7 9 -1 29
-16 20 -16 37 -30 37 -33z m175 -122 c69 -53 325 -280 325 -289 0 -3 -12 6
-27 19 -67 62 -80 72 -113 89 -19 10 -47 30 -62 44 -15 14 -30 26 -33 26 -7 0
-76 53 -111 85 -12 11 -45 38 -73 60 -27 22 -50 46 -51 53 0 6 -7 12 -16 12
-8 0 -12 5 -9 10 6 10 41 -12 170 -109z m-7895 65 c0 -2 -8 -10 -17 -17 -16
-13 -17 -12 -4 4 13 16 21 21 21 13z m-84 -65 c-4 -5 -30 -28 -59 -51 l-52
-42 55 51 c55 51 66 59 56 42z m-156 -134 c0 -2 -15 -16 -32 -33 l-33 -29 29
33 c28 30 36 37 36 29z m-71 -70 c-2 -1 -13 -9 -24 -17 -19 -14 -19 -14 -6 3
7 9 18 17 24 17 6 0 8 -1 6 -3z m8621 -164 l75 -78 -77 75 c-72 69 -83 80 -75
80 1 0 36 -35 77 -77z m116 -111 c-4 -3 -14 2 -24 12 -16 18 -16 18 6 6 13 -6
21 -14 18 -18z m-4311 3 c433 -25 797 -104 1182 -256 241 -95 660 -345 903
-538 245 -196 673 -584 752 -684 52 -67 88 -139 88 -179 0 -17 -38 -145 -84
-282 -47 -138 -97 -298 -112 -356 -29 -116 -55 -175 -82 -189 -9 -5 -36 -12
-59 -16 -161 -26 -504 214 -714 500 -341 466 -720 772 -1182 955 -224 88 -375
123 -622 141 -258 19 -469 -1 -740 -71 -186 -48 -295 -91 -453 -182 -167 -95
-258 -167 -398 -311 -172 -177 -272 -332 -353 -547 -66 -176 -86 -295 -85
-500 1 -156 3 -186 27 -275 57 -212 214 -474 391 -650 144 -143 247 -223 442
-341 190 -115 345 -191 554 -272 417 -163 531 -207 639 -244 394 -136 936
-397 1226 -591 171 -115 467 -360 590 -489 388 -406 586 -720 725 -1147 126
-392 160 -608 161 -1041 0 -276 -1 -288 -26 -385 -50 -189 -128 -313 -327
-515 -192 -196 -506 -416 -839 -587 -426 -219 -862 -347 -1384 -407 -386 -44
-455 -49 -559 -37 -56 6 -166 16 -245 21 -387 28 -610 79 -1081 247 -374 134
-958 478 -1319 777 -278 231 -646 621 -821 870 -41 58 -117 165 -168 236 -158
223 -220 320 -278 433 -76 149 -94 205 -94 295 0 160 58 260 183 317 69 32 57
31 758 28 l456 -3 5 -62 c10 -114 126 -443 237 -669 84 -172 163 -293 315
-482 144 -180 228 -270 369 -395 266 -235 561 -423 843 -535 161 -65 494 -147
653 -162 35 -3 67 -7 70 -10 4 -2 92 -4 196 -4 105 0 201 0 215 0 40 -1 184
19 330 45 235 41 438 108 638 208 361 182 585 373 768 657 84 130 162 342 190
517 44 277 -58 681 -239 940 -63 90 -208 243 -300 317 -294 236 -700 472
-1212 708 -66 30 -156 71 -199 92 -44 20 -122 54 -175 75 -53 21 -154 65 -226
98 -130 60 -581 287 -600 302 -5 4 -57 34 -115 66 -357 196 -625 427 -867 749
-183 243 -335 598 -441 1030 -36 143 -52 232 -92 510 -17 116 -42 270 -56 343
-13 73 -24 154 -24 180 0 28 -4 42 -9 37 -29 -31 -125 -244 -169 -376 -130
-392 -174 -822 -116 -1135 48 -265 134 -498 271 -738 105 -184 141 -238 234
-352 167 -206 287 -322 534 -520 244 -194 680 -451 1050 -617 55 -25 208 -95
340 -157 132 -61 292 -134 355 -162 139 -61 633 -306 748 -372 115 -65 270
-167 377 -246 212 -157 320 -301 355 -474 24 -117 -16 -306 -91 -433 -46 -78
-213 -249 -312 -321 -199 -144 -483 -264 -752 -315 -218 -42 -333 -51 -491
-38 -273 23 -404 56 -639 157 -412 179 -755 456 -887 718 -16 32 -28 60 -25
62 2 2 134 -1 293 -7 419 -15 2132 -8 2161 9 33 19 54 63 41 87 -23 42 -76 88
-141 121 -115 59 -328 150 -417 179 -47 15 -134 47 -195 70 -105 41 -292 105
-307 105 -4 0 -81 29 -170 64 -90 36 -226 83 -303 105 -77 23 -174 54 -215 70
-41 16 -133 50 -205 76 -71 25 -166 64 -210 85 -44 20 -116 52 -160 70 -44 18
-84 36 -90 40 -5 4 -77 42 -160 85 -474 245 -915 603 -1257 1020 -109 132
-277 427 -351 615 -65 162 -90 257 -127 475 -32 186 -32 195 -27 420 3 127 9
255 15 285 6 30 16 102 22 160 29 240 140 638 251 890 141 325 319 615 503
821 23 25 79 89 126 143 130 150 398 378 585 501 145 94 410 237 561 302 123
53 431 148 593 183 184 41 348 57 791 78 19 1 148 -5 285 -13z m4339 -31 c5
-14 4 -15 -9 -4 -17 14 -19 20 -6 20 5 0 12 -7 15 -16z m325 -344 l43 -55 -58
61 c-33 34 -76 81 -98 105 -21 24 -73 80 -115 124 -42 45 -17 22 54 -50 72
-71 150 -155 174 -185z m-8654 79 c-28 -28 -59 -55 -70 -61 -11 -6 9 17 45 50
79 74 92 80 25 11z m-115 -103 c0 -2 -8 -10 -17 -17 -16 -13 -17 -12 -4 4 13
16 21 21 21 13z m-40 -41 c0 -3 -55 -63 -122 -133 -157 -162 -183 -194 -373
-447 -86 -115 -162 -214 -168 -220 -23 -22 116 171 271 377 48 64 377 424 390
427 1 1 2 -1 2 -4z m8885 -25 c10 -11 16 -20 13 -20 -3 0 -13 9 -23 20 -10 11
-16 20 -13 20 3 0 13 -9 23 -20z m45 -55 c13 -14 21 -25 18 -25 -2 0 -15 11
-28 25 -13 14 -21 25 -18 25 2 0 15 -11 28 -25z m-4614 -1014 c184 -38 464
-158 636 -271 182 -120 459 -415 542 -577 l17 -33 -308 -1 c-823 -2 -936 -11
-1161 -85 -119 -40 -312 -155 -312 -188 0 -8 25 -17 73 -26 39 -7 146 -30 237
-52 91 -21 219 -50 285 -64 219 -46 577 -145 840 -231 336 -110 396 -134 660
-261 559 -269 841 -485 1227 -944 129 -152 359 -559 457 -806 199 -504 284
-1143 215 -1622 -25 -170 -141 -670 -156 -670 -4 0 -8 37 -8 83 0 218 -60 549
-160 899 -211 730 -719 1418 -1410 1910 -58 41 -186 123 -285 183 -99 59 -192
117 -207 127 -46 32 -376 196 -508 253 -69 29 -152 65 -185 80 -33 15 -143 56
-245 92 -395 138 -490 172 -635 230 -82 33 -190 75 -240 93 -135 49 -368 171
-470 247 -49 36 -144 121 -210 187 -102 103 -127 135 -166 211 -68 130 -83
190 -83 315 0 86 5 119 26 181 47 139 165 311 281 411 233 200 458 300 792
352 70 11 372 -4 461 -23z m-5505 -738 c-12 -20 -14 -14 -5 12 4 9 9 14 11 11
3 -2 0 -13 -6 -23z m-114 -315 c-3 -8 -6 -5 -6 6 -1 11 2 17 5 13 3 -3 4 -12
1 -19z m-18 -67 c-7 -23 -14 -39 -16 -37 -3 2 1 23 8 45 7 23 14 39 16 37 3
-2 -1 -23 -8 -45z m-25 -85 c-3 -15 -8 -25 -11 -23 -2 3 -1 17 3 31 3 15 8 25
11 23 2 -3 1 -17 -3 -31z m-17 -58 c-3 -8 -6 -5 -6 6 -1 11 2 17 5 13 3 -3 4
-12 1 -19z m-20 -70 c-3 -8 -6 -5 -6 6 -1 11 2 17 5 13 3 -3 4 -12 1 -19z
m-60 -230 c-3 -8 -6 -5 -6 6 -1 11 2 17 5 13 3 -3 4 -12 1 -19z m-10 -50 c-3
-7 -5 -2 -5 12 0 14 2 19 5 13 2 -7 2 -19 0 -25z m-10 -50 c-3 -7 -5 -2 -5 12
0 14 2 19 5 13 2 -7 2 -19 0 -25z m-10 -40 c-3 -8 -6 -5 -6 6 -1 11 2 17 5 13
3 -3 4 -12 1 -19z m-40 -280 c-3 -7 -5 -2 -5 12 0 14 2 19 5 13 2 -7 2 -19 0
-25z m-10 -60 c-3 -8 -6 -5 -6 6 -1 11 2 17 5 13 3 -3 4 -12 1 -19z m11750
-525 c-3 -10 -5 -4 -5 12 0 17 2 24 5 18 2 -7 2 -21 0 -30z m10 -220 c-2 -27
-3 -5 -3 47 0 52 1 74 3 48 2 -27 2 -69 0 -95z m-20 -415 c-3 -8 -6 -5 -6 6
-1 11 2 17 5 13 3 -3 4 -12 1 -19z m-11760 -450 c-3 -7 -5 -2 -5 12 0 14 2 19
5 13 2 -7 2 -19 0 -25z m11276 -134 c23 -7 33 -13 23 -13 -25 -1 -101 35 -118
57 -8 9 1 7 20 -7 19 -13 53 -29 75 -37z m257 16 c-8 -5 -19 -10 -25 -10 -5 0
-3 5 5 10 8 5 20 10 25 10 6 0 3 -5 -5 -10z m-73 -26 c-3 -3 -12 -4 -19 -1 -8
3 -5 6 6 6 11 1 17 -2 13 -5z m-64 -11 c-13 -2 -35 -2 -50 0 -16 2 -5 4 22 4
28 0 40 -2 28 -4z m-11356 -195 c-3 -8 -6 -5 -6 6 -1 11 2 17 5 13 3 -3 4 -12
1 -19z m10 -60 c-3 -8 -6 -5 -6 6 -1 11 2 17 5 13 3 -3 4 -12 1 -19z m10 -70
c-3 -8 -6 -5 -6 6 -1 11 2 17 5 13 3 -3 4 -12 1 -19z m20 -120 c-3 -7 -5 -2
-5 12 0 14 2 19 5 13 2 -7 2 -19 0 -25z m10 -40 c-3 -8 -6 -5 -6 6 -1 11 2 17
5 13 3 -3 4 -12 1 -19z m10110 -2084 c-3 -3 -12 -4 -19 -1 -8 3 -5 6 6 6 11 1
17 -2 13 -5z m120 0 c-3 -3 -12 -4 -19 -1 -8 3 -5 6 6 6 11 1 17 -2 13 -5z
m-172 -14 c-3 -5 -12 -10 -18 -10 -7 0 -6 4 3 10 19 12 23 12 15 0z m-67 -43
c-19 -18 -45 -48 -57 -67 -11 -19 -21 -30 -21 -24 0 16 55 89 82 108 36 26 35
19 -4 -17z m327 23 c3 -6 -1 -7 -9 -4 -18 7 -21 14 -7 14 6 0 13 -4 16 -10z
m-9204 -210 c287 -335 521 -567 827 -818 56 -47 102 -87 102 -89 0 -11 -170
130 -331 274 -70 62 -130 113 -133 113 -9 0 -46 39 -46 48 0 4 -59 65 -130
135 -72 71 -130 133 -130 138 0 5 -7 9 -15 9 -8 0 -15 3 -15 8 0 4 -34 43 -75
86 -41 44 -73 82 -70 84 2 3 -17 32 -42 66 -53 71 -33 52 58 -54z m9300 -224
c-42 -68 -138 -137 -188 -135 -20 0 -13 4 54 29 36 14 108 81 130 123 8 16 17
26 20 23 3 -3 -4 -20 -16 -40z m-381 -111 c14 -8 19 -14 10 -14 -8 0 -24 6
-34 14 -25 19 -9 19 24 0z m169 -31 c9 -8 -105 -2 -124 6 -12 5 8 6 50 3 39
-3 72 -7 74 -9z m-9587 -148 c10 -19 10 -20 -6 -7 -9 8 -22 24 -28 35 -10 19
-10 20 6 7 9 -8 22 -24 28 -35z m8161 -383 c-7 -2 -19 -2 -25 0 -7 3 -2 5 12
5 14 0 19 -2 13 -5z m-53 -13 c-8 -5 -19 -10 -25 -10 -5 0 -3 5 5 10 8 5 20
10 25 10 6 0 3 -5 -5 -10z m-6639 -27 c13 -16 12 -17 -3 -4 -17 13 -22 21 -14
21 2 0 10 -8 17 -17z m40 -30 c13 -16 12 -17 -3 -4 -17 13 -22 21 -14 21 2 0
10 -8 17 -17z m6925 -15 l29 -33 -32 29 c-31 28 -38 36 -30 36 2 0 16 -15 33
-32z m-6786 -85 c0 -7 -39 17 -46 28 -3 6 5 3 20 -6 14 -10 26 -19 26 -22z
m6844 1 c3 -8 2 -12 -4 -9 -6 3 -10 10 -10 16 0 14 7 11 14 -7z m-704 -38 c0
-2 -12 -11 -27 -20 l-28 -17 24 20 c23 21 31 25 31 17z m727 -38 c-3 -8 -6 -5
-6 6 -1 11 2 17 5 13 3 -3 4 -12 1 -19z m-805 -18 c-12 -11 -25 -20 -29 -20
-9 1 36 40 45 40 3 0 -4 -9 -16 -20z m-5872 -36 c0 -2 -9 0 -20 6 -11 6 -20
13 -20 16 0 2 9 0 20 -6 11 -6 20 -13 20 -16z m5815 -4 c-10 -11 -23 -20 -29
-20 -6 1 0 10 13 20 30 26 39 26 16 0z m872 -42 c-3 -7 -5 -2 -5 12 0 14 2 19
5 13 2 -7 2 -19 0 -25z m-6577 -25 c0 -7 -39 17 -46 28 -3 6 5 3 20 -6 14 -10
26 -19 26 -22z m5630 23 c0 -10 -123 -80 -335 -190 -33 -17 -61 -34 -63 -38
-2 -5 -9 -8 -16 -8 -18 0 -66 -24 -66 -32 0 -5 -7 -8 -15 -8 -9 0 -53 -18
-100 -40 -178 -84 -87 -34 195 108 162 81 318 162 345 180 52 33 55 34 55 28z
m-5580 -52 c0 -2 -9 0 -20 6 -11 6 -20 13 -20 16 0 2 9 0 20 -6 11 -6 20 -13
20 -16z m-1219 -21 l34 -38 -35 30 c-19 16 -39 33 -44 37 -6 5 -6 8 0 8 6 0
26 -17 45 -37z m7729 -36 c-26 -108 -93 -204 -197 -277 -40 -28 -35 -22 27 37
89 83 145 173 162 257 6 33 13 55 16 48 2 -7 -2 -36 -8 -65z m-6460 27 c0 -2
-9 0 -20 6 -11 6 -20 13 -20 16 0 2 9 0 20 -6 11 -6 20 -13 20 -16z m79 -40
c14 -12 -19 -1 -35 12 -18 14 -18 14 6 3 14 -6 27 -13 29 -15z m66 -34 c3 -6
-1 -7 -9 -4 -18 7 -21 14 -7 14 6 0 13 -4 16 -10z m381 -198 c-5 -4 -286 136
-286 143 0 3 65 -28 145 -67 79 -40 143 -74 141 -76z m4273 -21 c-105 -52
-543 -213 -575 -210 -5 0 68 27 161 59 94 32 229 83 300 114 127 54 186 73
114 37z m-3939 -111 c8 -5 11 -10 5 -10 -5 0 -17 5 -25 10 -8 5 -10 10 -5 10
6 0 17 -5 25 -10z m135 -50 c123 -43 131 -53 13 -16 -65 21 -145 55 -128 55 3
0 55 -17 115 -39z m5090 30 c-3 -5 -16 -15 -28 -21 -19 -9 -19 -8 3 10 28 23
34 26 25 11z m-60 -40 c-3 -5 -16 -15 -28 -21 -19 -9 -19 -8 3 10 28 23 34 26
25 11z m-4858 -46 c-3 -3 -12 -4 -19 -1 -8 3 -5 6 6 6 11 1 17 -2 13 -5z
m3040 0 c-3 -3 -12 -4 -19 -1 -8 3 -5 6 6 6 11 1 17 -2 13 -5z m-2982 -14 c13
-5 14 -9 5 -9 -8 0 -24 4 -35 9 -13 5 -14 9 -5 9 8 0 24 -4 35 -9z m2762 -46
c-3 -3 -12 -4 -19 -1 -8 3 -5 6 6 6 11 1 17 -2 13 -5z m-2530 -20 c-3 -3 -12
-4 -19 -1 -8 3 -5 6 6 6 11 1 17 -2 13 -5z m2436 -1 c-7 -2 -19 -2 -25 0 -7 3
-2 5 12 5 14 0 19 -2 13 -5z m1936 3 c-2 -2 -15 -9 -29 -15 -24 -11 -24 -11
-6 3 16 13 49 24 35 12z m-4322 -12 c-3 -3 -12 -4 -19 -1 -8 3 -5 6 6 6 11 1
17 -2 13 -5z m2336 -1 c-7 -2 -19 -2 -25 0 -7 3 -2 5 12 5 14 0 19 -2 13 -5z
m-50 -10 c-7 -2 -19 -2 -25 0 -7 3 -2 5 12 5 14 0 19 -2 13 -5z m-2196 -9 c-3
-3 -12 -4 -19 -1 -8 3 -5 6 6 6 11 1 17 -2 13 -5z m2133 -4 c-14 -4 -36 -8
-50 -8 -22 0 -22 1 5 8 17 4 39 8 50 8 16 0 15 -2 -5 -8z m2035 0 c-3 -5 -12
-10 -18 -10 -7 0 -6 4 3 10 19 12 23 12 15 0z m-4058 -16 c-3 -3 -12 -4 -19
-1 -8 3 -5 6 6 6 11 1 17 -2 13 -5z m1918 -4 c-16 -4 -43 -8 -60 -8 -29 1 -29
1 5 8 19 4 46 7 60 8 22 0 22 -1 -5 -8z m-1858 -6 c-3 -3 -12 -4 -19 -1 -8 3
-5 6 6 6 11 1 17 -2 13 -5z m1760 -10 c-3 -3 -12 -4 -19 -1 -8 3 -5 6 6 6 11
1 17 -2 13 -5z m-59 -11 c-10 -2 -26 -2 -35 0 -10 3 -2 5 17 5 19 0 27 -2 18
-5z m-1381 -19 c-3 -3 -12 -4 -19 -1 -8 3 -5 6 6 6 11 1 17 -2 13 -5z m1221
-1 c-10 -2 -26 -2 -35 0 -10 3 -2 5 17 5 19 0 27 -2 18 -5z m-1021 -19 c-3 -3
-12 -4 -19 -1 -8 3 -5 6 6 6 11 1 17 -2 13 -5z m96 -1 c-7 -2 -19 -2 -25 0 -7
3 -2 5 12 5 14 0 19 -2 13 -5z m730 0 c-13 -2 -33 -2 -45 0 -13 2 -3 4 22 4
25 0 35 -2 23 -4z m2397 -48 c0 -3 -31 -21 -70 -40 -38 -19 -70 -33 -70 -30 0
4 126 72 138 75 1 0 2 -2 2 -5z m-160 -85 c-8 -5 -19 -10 -25 -10 -5 0 -3 5 5
10 8 5 20 10 25 10 6 0 3 -5 -5 -10z m-120 -54 c0 -2 -7 -7 -16 -10 -8 -3 -12
-2 -9 4 6 10 25 14 25 6z m-967 -343 c-7 -2 -19 -2 -25 0 -7 3 -2 5 12 5 14 0
19 -2 13 -5z m-86 -19 c-3 -3 -12 -4 -19 -1 -8 3 -5 6 6 6 11 1 17 -2 13 -5z
m-940 -160 c-3 -3 -12 -4 -19 -1 -8 3 -5 6 6 6 11 1 17 -2 13 -5z m-674 -21
c-24 -2 -62 -2 -85 0 -24 2 -5 4 42 4 47 0 66 -2 43 -4z m180 0 c-7 -2 -19 -2
-25 0 -7 3 -2 5 12 5 14 0 19 -2 13 -5z m140 0 c-24 -2 -62 -2 -85 0 -24 2 -5
4 42 4 47 0 66 -2 43 -4z m145 0 c-10 -2 -28 -2 -40 0 -13 2 -5 4 17 4 22 1
32 -1 23 -4z"/>
</g>
</svg>
