<?xml version="1.0" standalone="no"?>
<!DOCTYPE svg PUBLIC "-//W3C//DTD SVG 20010904//EN"
 "http://www.w3.org/TR/2001/REC-SVG-20010904/DTD/svg10.dtd">
<svg version="1.0" xmlns="http://www.w3.org/2000/svg"
 width="1890.000000pt" height="1890.000000pt" viewBox="0 0 1890.000000 1890.000000"
 preserveAspectRatio="xMidYMid meet">

<g transform="translate(0.000000,1890.000000) scale(0.100000,-0.100000)"
fill="#000000" stroke="none">
<path d="M9181 16355 c-1 -5 3 -37 9 -70 5 -33 14 -116 20 -185 5 -69 15 -170
20 -225 14 -146 38 -753 50 -1270 25 -1109 31 -1528 40 -3065 5 -899 15 -1882
21 -2185 19 -887 -4 -2285 -46 -2745 -5 -55 -35 -568 -36 -625 -1 -37 17 -331
32 -515 38 -480 142 -875 278 -1055 50 -66 119 -131 153 -146 23 -9 33 -8 63
11 19 12 41 27 48 34 6 6 28 23 47 36 105 73 388 320 535 466 157 158 404 437
515 584 217 286 382 533 514 770 33 58 71 125 85 150 52 89 261 520 261 536 0
4 9 27 20 50 24 48 89 215 126 319 13 39 27 77 31 85 3 8 7 17 8 20 1 3 4 12
8 20 3 8 17 56 32 105 14 50 30 99 35 110 31 65 141 521 186 775 49 274 61
367 79 595 9 110 19 226 24 257 14 103 5 738 -13 968 -27 336 -67 633 -110
810 -33 139 -93 376 -99 390 -3 8 -19 65 -36 125 -77 287 -267 853 -335 1000
-8 17 -24 57 -37 90 -12 33 -26 65 -30 71 -5 6 -15 28 -23 50 -7 21 -27 68
-44 104 -16 36 -57 124 -90 195 -65 139 -293 563 -357 665 -83 131 -224 347
-237 365 -4 6 -61 82 -126 170 -127 173 -163 218 -316 400 -115 136 -166 191
-451 488 -320 333 -403 431 -500 587 -20 31 -40 67 -123 220 -62 115 -207 410
-225 460 -3 8 -6 11 -6 5z"/>
<path d="M9212 5600 c0 -19 2 -27 5 -17 2 9 2 25 0 35 -3 9 -5 1 -5 -18z"/>
<path d="M9203 5475 c0 -22 2 -30 4 -17 2 12 2 30 0 40 -3 9 -5 -1 -4 -23z"/>
<path d="M9192 5360 c0 -19 2 -27 5 -17 2 9 2 25 0 35 -3 9 -5 1 -5 -18z"/>
<path d="M9181 5234 c0 -11 3 -14 6 -6 3 7 2 16 -1 19 -3 4 -6 -2 -5 -13z"/>
<path d="M9142 4950 c0 -14 2 -19 5 -12 2 6 2 18 0 25 -3 6 -5 1 -5 -13z"/>
<path d="M9132 4870 c0 -14 2 -19 5 -12 2 6 2 18 0 25 -3 6 -5 1 -5 -13z"/>
<path d="M9122 4800 c0 -14 2 -19 5 -12 2 6 2 18 0 25 -3 6 -5 1 -5 -13z"/>
<path d="M9111 4734 c0 -11 3 -14 6 -6 3 7 2 16 -1 19 -3 4 -6 -2 -5 -13z"/>
<path d="M9051 4454 c0 -11 3 -14 6 -6 3 7 2 16 -1 19 -3 4 -6 -2 -5 -13z"/>
<path d="M9041 4414 c0 -11 3 -14 6 -6 3 7 2 16 -1 19 -3 4 -6 -2 -5 -13z"/>
</g>
</svg>
