<?xml version="1.0" standalone="no"?>
<!DOCTYPE svg PUBLIC "-//W3C//DTD SVG 20010904//EN"
 "http://www.w3.org/TR/2001/REC-SVG-20010904/DTD/svg10.dtd">
<svg version="1.0" xmlns="http://www.w3.org/2000/svg"
 width="512.000000pt" height="512.000000pt" viewBox="0 0 512.000000 512.000000"
 preserveAspectRatio="xMidYMid meet">

<g transform="translate(0.000000,512.000000) scale(0.100000,-0.100000)"
fill="#000000" stroke="none">
<path d="M2500 4474 c-14 -2 -58 -9 -99 -15 -167 -25 -401 -120 -549 -225
-200 -142 -363 -359 -423 -566 -18 -64 -22 -109 -28 -363 -4 -208 -10 -296
-19 -313 -46 -81 -55 -237 -22 -367 38 -147 119 -280 269 -440 51 -54 84 -104
145 -220 44 -83 95 -174 114 -204 l34 -54 -4 -112 c-3 -104 -5 -114 -31 -148
-16 -21 -43 -43 -60 -50 -18 -8 -196 -46 -397 -86 -391 -78 -472 -100 -590
-162 -179 -94 -230 -168 -186 -272 44 -103 376 -385 621 -526 920 -531 2059
-446 2883 215 119 95 290 267 307 308 46 110 -14 193 -208 287 -116 56 -172
71 -587 154 -203 41 -378 79 -389 85 -11 5 -33 27 -48 47 -26 34 -28 44 -31
147 l-4 111 40 65 c21 36 69 125 107 198 50 97 86 153 133 205 119 132 182
218 227 310 81 169 96 343 42 478 -22 53 -27 82 -27 150 0 125 -19 360 -36
452 -8 45 -19 132 -25 192 -13 148 -32 224 -75 306 -83 158 -165 211 -389 253
-44 8 -112 29 -150 46 -100 46 -192 76 -282 94 -83 16 -222 26 -263 20z"/>
</g>
</svg>
